#!OML:ASF H:\charlestonDancing\Project 1\Capture day 1\Session 1\femaleDancer.ASF
:FULLY-SPECIFIED
:DEGREES
222
root -10.2148 17.3291 1.24521 23.2143 -75.61 -12.9427
lowerback 29.4573 -1.0146 7.54786
upperback 9.33543 0.222537 2.45649
thorax -5.58793 -0.199969 -1.64991
lowerneck 5.65158 10.7272 10.5852
upperneck -12.2836 14.0582 -14.7071
head -2.6834 7.34132 -6.54016
rclavicle 2.50469e-014 1.55052e-014
rhumerus -23.3885 1.33796 -75.4404
rradius 36.6337
rwrist 23.6261
rhand -33.5027 -37.1629
rfingers 7.12502
rthumb -6.69949 -67.0369
lclavicle 2.50469e-014 1.55052e-014
lhumerus -12.4578 -13.2111 86.3822
lradius 65.0212
lwrist -14.5878
lhand -33.1327 8.80031
lfingers 7.12502
lthumb -6.34233 38.6854
rfemur -30.1842 2.95677 23.8367
rtibia 45.6067
rfoot -22.4212 0.355168
rtoes -12.2963
lfemur -46.3087 -6.51447 -16.3707
ltibia 54.6565
lfoot -5.44865 -15.871
ltoes -12.8565
223
root -10.1171 17.1819 1.21151 31.8008 -73.5292 -22.2058
lowerback 29.1354 -1.69588 10.9794
upperback 9.14071 0.337215 3.33034
thorax -5.54172 -0.150306 -2.65304
lowerneck 6.15016 11.1626 11.141
upperneck -12.4173 14.7223 -15.0424
head -2.64893 7.68341 -6.74459
rclavicle 3.97569e-015 3.18055e-015
rhumerus -25.7957 -0.579263 -75.0546
rradius 33.5606
rwrist 26.7515
rhand -32.2172 -35.7019
rfingers 7.12502
rthumb -5.45842 -65.6116
lclavicle 3.97569e-015 3.18055e-015
lhumerus -8.50729 -16.5583 85.9546
lradius 67.8864
lwrist -16.4033
lhand -32.1376 9.09733
lfingers 7.12502
lthumb -5.38163 39.009
rfemur -30.8884 2.77706 27.407
rtibia 47.2818
rfoot -22.7756 -0.950752
rtoes -14.0497
lfemur -47.5066 -5.2547 -13.4565
ltibia 58.616
lfoot -7.66311 -15.8772
ltoes -14.4353
224
root -10.0293 17.0802 1.18798 33.3742 -72.885 -23.9156
lowerback 28.8147 -1.93868 11.9403
upperback 8.8874 0.307874 3.58861
thorax -5.65138 -0.170667 -2.89283
lowerneck 6.58768 11.6414 11.5674
upperneck -12.4976 15.439 -15.3244
head -2.59091 8.05263 -6.90289
rclavicle -2.62396e-014 5.32743e-014
rhumerus -28.0215 -2.53771 -74.4852
rradius 30.6876
rwrist 30.3367
rhand -30.8898 -35.1123
rfingers 7.12502
rthumb -4.17673 -65.0511
lclavicle -2.62396e-014 5.32743e-014
lhumerus -4.95155 -19.2318 85.0878
lradius 70.8573
lwrist -17.3793
lhand -31.8151 9.11534
lfingers 7.12502
lthumb -5.07019 39.0347
rfemur -31.7909 2.47008 28.3851
rtibia 48.607
rfoot -23.1168 -1.98832
rtoes -17.4781
lfemur -48.2667 -3.81245 -13.1777
ltibia 62.3174
lfoot -9.82137 -14.658
ltoes -15.7527
225
root -9.96273 17.0404 1.17619 30.6846 -73.3906 -21.2699
lowerback 28.803 -1.90678 11.0898
upperback 8.7366 0.145704 3.47202
thorax -5.86968 -0.253133 -2.49313
lowerneck 7.01807 12.1662 12.0043
upperneck -12.6559 16.1897 -15.936
head -2.51116 8.45916 -7.15832
rclavicle -3.57812e-014 5.88403e-014
rhumerus -29.9858 -4.65381 -73.6444
rradius 28.2389
rwrist 33.8942
rhand -31.1772 -35.4096
rfingers 7.12502
rthumb -4.45422 -65.3427
lclavicle -3.57812e-014 5.88403e-014
lhumerus -1.61788 -21.2064 84.0052
lradius 73.9122
lwrist -17.4407
lhand -31.7025 8.39645
lfingers 7.12502
lthumb -4.96147 38.3184
rfemur -32.28 2.16693 27.4772
rtibia 49.38
rfoot -23.31 -2.30028
rtoes -19.1314
lfemur -47.9082 -2.3002 -14.7768
ltibia 65.4875
lfoot -12.1064 -13.181
ltoes -18.183
226
root -9.90125 17.0239 1.16182 30.8807 -73.608 -21.3682
lowerback 28.6355 -1.94796 10.6395
upperback 8.58309 -0.0121307 3.63901
thorax -5.99859 -0.336132 -2.00171
lowerneck 7.5022 12.7174 12.6214
upperneck -12.861 16.9669 -16.9964
head -2.37884 8.90351 -7.57061
rclavicle -1.90833e-014 -1.98785e-014
rhumerus -31.7681 -6.78757 -72.6683
rradius 26.4059
rwrist 36.9303
rhand -30.8924 -34.8293
rfingers 7.12502
rthumb -4.17923 -64.768
lclavicle -1.90833e-014 -1.98785e-014
lhumerus 1.75419 -22.3591 82.5652
lradius 76.8474
lwrist -17.1821
lhand -31.2711 8.05008
lfingers 7.12502
lthumb -4.54497 37.9813
rfemur -32.8219 2.4366 27.3878
rtibia 49.7098
rfoot -23.1719 -2.14872
rtoes -17.761
lfemur -47.4297 -0.608004 -15.2284
ltibia 68.0931
lfoot -13.5307 -12.1005
ltoes -20.4299
227
root -9.85297 17.0555 1.16333 31.471 -73.9703 -22.2123
lowerback 28.8325 -2.04699 10.1897
upperback 8.58571 -0.230532 3.82916
thorax -6.12219 -0.453335 -1.45985
lowerneck 8.01203 13.3174 12.9575
upperneck -13.2625 17.7948 -17.7739
head -2.34268 9.36972 -7.86804
rclavicle -6.87795e-014 2.94201e-014
rhumerus -33.463 -8.45443 -71.7715
rradius 25.3327
rwrist 38.8113
rhand -30.8783 -34.6158
rfingers 7.12502
rthumb -4.1656 -64.5548
lclavicle -6.87795e-014 2.94201e-014
lhumerus 5.28563 -22.8544 80.7393
lradius 79.4661
lwrist -17.0826
lhand -31.3698 8.37969
lfingers 7.12502
lthumb -4.6402 38.3089
rfemur -32.6279 2.82414 27.3447
rtibia 49.4535
rfoot -22.8538 -1.46846
rtoes -14.467
lfemur -45.9985 1.00534 -15.3896
ltibia 70.047
lfoot -14.1912 -10.314
ltoes -24.7285
228
root -9.80168 17.1173 1.18149 31.4235 -74.1661 -22.001
lowerback 28.4141 -2.25624 9.88402
upperback 8.67294 -0.638286 3.93862
thorax -5.86523 -0.639285 -1.04174
lowerneck 8.46426 13.9329 12.9667
upperneck -13.8365 18.5941 -18.4301
head -2.38736 9.82852 -8.09075
rclavicle -3.33958e-014 -5.48646e-014
rhumerus -35.0319 -9.43994 -71.2108
rradius 25.0266
rwrist 39.369
rhand -31.0774 -34.709
rfingers 7.12502
rthumb -4.35789 -64.6442
lclavicle -3.33958e-014 -5.48646e-014
lhumerus 8.9844 -23.1251 78.6153
lradius 81.6635
lwrist -16.7566
lhand -32.0126 8.52913
lfingers 7.12502
lthumb -5.26087 38.4438
rfemur -32.6118 2.64815 27.0795
rtibia 48.7149
rfoot -22.227 -0.782203
rtoes -12.6592
lfemur -44.5772 1.92695 -15.6213
ltibia 71.4338
lfoot -14.3015 -10.442
ltoes -26.1253
229
root -9.75125 17.2071 1.20999 31.4125 -74.3396 -21.6759
lowerback 28.0034 -2.55474 9.72637
upperback 8.69682 -1.1111 3.94022
thorax -5.68327 -0.856971 -0.80901
lowerneck 8.37646 14.3311 13.5965
upperneck -13.7117 19.1557 -19.337
head -2.07872 10.1398 -8.37855
rclavicle 3.57812e-014 -2.78299e-014
rhumerus -36.6393 -9.56278 -71.219
rradius 25.3362
rwrist 38.6768
rhand -31.1772 -34.5329
rfingers 7.12502
rthumb -4.45421 -64.4661
lclavicle 3.57812e-014 -2.78299e-014
lhumerus 12.5204 -23.1955 76.1996
lradius 83.33
lwrist -16.1346
lhand -32.8456 8.56337
lfingers 7.12502
lthumb -6.06518 38.4565
rfemur -32.5209 2.22824 26.8518
rtibia 47.5854
rfoot -21.3821 -0.557761
rtoes -14.6658
lfemur -42.8813 2.47969 -15.7776
ltibia 72.1574
lfoot -13.3886 -11.4025
ltoes -22.9014
230
root -9.70227 17.3186 1.24634 31.6941 -74.6406 -21.466
lowerback 27.7506 -2.89388 9.56235
upperback 8.51999 -1.58758 3.84723
thorax -5.80437 -1.08318 -0.66891
lowerneck 8.28472 14.6576 14.371
upperneck -13.3113 19.681 -20.048
head -1.69597 10.4118 -8.60492
rclavicle 5.56597e-015 3.57812e-014
rhumerus -38.4472 -8.88645 -71.7462
rradius 26.1374
rwrist 36.8618
rhand -31.5002 -34.3243
rfingers 7.12502
rthumb -4.76619 -64.2507
lclavicle 5.56597e-015 3.57812e-014
lhumerus 15.6537 -22.9467 73.6402
lradius 84.4105
lwrist -15.4814
lhand -33.8489 8.40354
lfingers 7.12502
lthumb -7.03375 38.2667
rfemur -32.5166 1.89085 26.6108
rtibia 46.2521
rfoot -20.4141 -0.65818
rtoes -18.4669
lfemur -41.0564 3.01223 -15.9663
ltibia 72.2389
lfoot -12.2132 -11.3952
ltoes -21.2119
